<?xml version="1.0" encoding="UTF-8"?>
<svg xmlns="http://www.w3.org/2000/svg" xmlns:xlink="http://www.w3.org/1999/xlink" viewBox="0 0 4952.8 4893.15">
  <defs>
    <style>
      .cls-1, .cls-2, .cls-3, .cls-4, .cls-5, .cls-6, .cls-7, .cls-8, .cls-9, .cls-10, .cls-11, .cls-12, .cls-13, .cls-14, .cls-15, .cls-16, .cls-17, .cls-18, .cls-19, .cls-20, .cls-21, .cls-22, .cls-23, .cls-24, .cls-25, .cls-26, .cls-27, .cls-28, .cls-29, .cls-30 {
        fill: none;
      }

      .cls-31 {
        fill: #f05d5f;
      }

      .cls-32 {
        fill: #ffcb09;
      }

      .cls-2, .cls-3, .cls-4, .cls-5, .cls-6, .cls-7, .cls-8, .cls-9, .cls-11, .cls-12, .cls-13, .cls-14, .cls-15, .cls-16, .cls-17, .cls-18, .cls-19, .cls-20, .cls-21, .cls-22, .cls-23, .cls-24, .cls-25, .cls-26, .cls-27, .cls-28, .cls-29, .cls-30 {
        stroke-width: 7px;
      }

      .cls-2, .cls-3, .cls-23 {
        stroke: #a891c4;
      }

      .cls-2, .cls-8, .cls-30 {
        stroke-miterlimit: 4;
      }

      .cls-3, .cls-7, .cls-28 {
        stroke-miterlimit: 4;
      }

      .cls-4, .cls-5, .cls-6 {
        stroke: #4783c4;
      }

      .cls-4, .cls-25 {
        stroke-miterlimit: 4;
      }

      .cls-5, .cls-17, .cls-19, .cls-27 {
        stroke-miterlimit: 4;
      }

      .cls-6, .cls-18, .cls-26 {
        stroke-miterlimit: 4;
      }

      .cls-7, .cls-8, .cls-9 {
        stroke: #f0b783;
      }

      .cls-9, .cls-29 {
        stroke-miterlimit: 4;
      }

      .cls-33 {
        font-size: 36.27px;
        letter-spacing: -.02em;
        opacity: .6;
      }

      .cls-33, .cls-34, .cls-35, .cls-36, .cls-37, .cls-38, .cls-39, .cls-40, .cls-41, .cls-42, .cls-43, .cls-44, .cls-45 {
        font-family: Poppins-Regular, Poppins;
      }

      .cls-33, .cls-34, .cls-35, .cls-36, .cls-37, .cls-38, .cls-39, .cls-40, .cls-41, .cls-42, .cls-43, .cls-44, .cls-45, .cls-46, .cls-47, .cls-48, .cls-49, .cls-50, .cls-51, .cls-52, .cls-53, .cls-54, .cls-55, .cls-56, .cls-57, .cls-58, .cls-59, .cls-60, .cls-61, .cls-62, .cls-63, .cls-64, .cls-65, .cls-66, .cls-67, .cls-68, .cls-69, .cls-70, .cls-71, .cls-72, .cls-73, .cls-74, .cls-75, .cls-76, .cls-77, .cls-78, .cls-79, .cls-80, .cls-81, .cls-82, .cls-83, .cls-84, .cls-85, .cls-86, .cls-87, .cls-88, .cls-89 {
        fill: #fff;
      }

      .cls-34, .cls-83 {
        font-size: 65.68px;
      }

      .cls-35, .cls-86 {
        font-size: 65.68px;
      }

      .cls-36, .cls-88 {
        font-size: 65.68px;
      }

      .cls-37, .cls-76 {
        font-size: 65.68px;
      }

      .cls-38, .cls-66 {
        font-size: 52.93px;
      }

      .cls-39, .cls-69 {
        font-size: 52.93px;
      }

      .cls-40 {
        font-size: 52.93px;
      }

      .cls-41 {
        font-size: 52.93px;
      }

      .cls-42 {
        font-size: 52.93px;
      }

      .cls-43, .cls-60 {
        font-size: 52.93px;
      }

      .cls-44, .cls-61 {
        font-size: 52.93px;
      }

      .cls-45, .cls-52 {
        font-size: 52.93px;
      }

      .cls-46 {
        opacity: .2;
      }

      .cls-47 {
        font-size: 52.93px;
      }

      .cls-47, .cls-48, .cls-49, .cls-50, .cls-51, .cls-52, .cls-53, .cls-54, .cls-55, .cls-56, .cls-57, .cls-58, .cls-59, .cls-60, .cls-61, .cls-62, .cls-63, .cls-64, .cls-65, .cls-66, .cls-67, .cls-68, .cls-69, .cls-70, .cls-71, .cls-72, .cls-73, .cls-74, .cls-76, .cls-77, .cls-78, .cls-79, .cls-80, .cls-81, .cls-82, .cls-83, .cls-84, .cls-85, .cls-86, .cls-87, .cls-88, .cls-89 {
        font-family: Poppins-Light, Poppins;
        font-weight: 300;
      }

      .cls-48 {
        font-size: 52.93px;
      }

      .cls-49 {
        font-size: 52.93px;
      }

      .cls-50 {
        font-size: 52.93px;
      }

      .cls-51 {
        font-size: 52.93px;
      }

      .cls-53 {
        font-size: 52.93px;
      }

      .cls-54 {
        font-size: 52.93px;
      }

      .cls-55 {
        font-size: 52.93px;
      }

      .cls-56 {
        font-size: 52.93px;
      }

      .cls-57 {
        font-size: 52.93px;
      }

      .cls-58 {
        font-size: 52.93px;
      }

      .cls-59 {
        font-size: 52.93px;
      }

      .cls-62 {
        font-size: 52.93px;
      }

      .cls-63 {
        font-size: 52.93px;
      }

      .cls-64 {
        font-size: 52.93px;
      }

      .cls-65 {
        font-size: 52.93px;
      }

      .cls-67 {
        font-size: 52.93px;
      }

      .cls-68 {
        font-size: 52.93px;
      }

      .cls-70 {
        font-size: 52.93px;
      }

      .cls-71 {
        font-size: 52.93px;
      }

      .cls-72 {
        font-size: 52.93px;
      }

      .cls-73 {
        font-size: 52.93px;
      }

      .cls-74 {
        font-size: 52.93px;
      }

      .cls-90 {
        fill: #03a54c;
      }

      .cls-10 {
        stroke: #a7aaa7;
        stroke-miterlimit: 10;
        stroke-width: 16px;
      }

      .cls-11 {
        stroke-miterlimit: 4;
      }

      .cls-11, .cls-12, .cls-13, .cls-14 {
        stroke: #4598d3;
      }

      .cls-12 {
        stroke-miterlimit: 4;
      }

      .cls-13 {
        stroke-miterlimit: 4;
      }

      .cls-14 {
        stroke-miterlimit: 4;
      }

      .cls-15, .cls-16, .cls-17 {
        stroke: #e5898d;
      }

      .cls-15, .cls-22 {
        stroke-miterlimit: 4;
      }

      .cls-16, .cls-20, .cls-24 {
        stroke-miterlimit: 4;
      }

      .cls-91 {
        fill: #f2913b;
      }

      .cls-18, .cls-19, .cls-20, .cls-21, .cls-22 {
        stroke: #89c24f;
      }

      .cls-21 {
        stroke-miterlimit: 4;
      }

      .cls-92 {
        fill: #89c24f;
      }

      .cls-93 {
        fill: #8774b3;
      }

      .cls-77 {
        font-size: 65.68px;
      }

      .cls-78 {
        font-size: 65.68px;
      }

      .cls-79 {
        font-size: 65.68px;
      }

      .cls-80 {
        font-size: 65.68px;
      }

      .cls-81 {
        font-size: 65.68px;
      }

      .cls-82 {
        font-size: 65.68px;
      }

      .cls-84 {
        font-size: 65.68px;
      }

      .cls-85 {
        font-size: 65.68px;
      }

      .cls-87 {
        font-size: 65.68px;
      }

      .cls-89 {
        font-size: 65.68px;
      }

      .cls-24, .cls-25, .cls-26, .cls-27 {
        stroke: #f9d962;
      }

      .cls-94 {
        fill: #2782c5;
      }

      .cls-28, .cls-29, .cls-30 {
        stroke: #a8d16d;
      }

      .cls-95 {
        font-size: 75.48px;
      }

      .cls-95, .cls-96 {
        fill: #333;
        font-family: Poppins-SemiBold, Poppins;
        font-weight: 600;
      }

      .cls-96 {
        font-size: 75.48px;
      }

      .cls-97 {
        clip-path: url(#clippath);
      }

      .cls-98 {
        fill: #34689d;
      }
    </style>
    <clipPath id="clippath">
      <circle class="cls-1" cx="2446.57" cy="2439.95" r="540.7"/>
    </clipPath>
  </defs>
  <g id="joy-background">
    <path class="cls-32" d="M2444.07,1106.69c368.58,0,705.27,151.4,946.82,392.94l-944.32,946.94-2.5-1339.88Z"/>
  </g>
  <g id="trust-background">
    <path class="cls-92" d="M3384,1493.95c262.39,258.85,395.76,603.08,398.08,944.67l-1337.28,10.95,939.19-955.62Z"/>
  </g>
  <g id="fear-background">
    <path class="cls-90" d="M3780.85,2444.93c0,368.58-152.4,695.27-393.94,936.82l-947.94-936.32,1341.88-.5Z"/>
  </g>
  <g id="surprise-background">
    <path class="cls-94" d="M3387.5,3382.75c-259.99,261.27-598.45,393.62-940.04,394.46l-.89-1330.64,940.92,936.18Z"/>
  </g>
  <g id="sad-background">
    <path class="cls-98" d="M2447.01,3774.21c-368.58,0-701.14-146.55-942.68-388.1l942.58-939.22.1,1327.32Z"/>
  </g>
  <g id="disgust-background">
    <path class="cls-93" d="M1504.54,3384.22c-259.69-261.56-390-600.81-388.77-942.4l1330.62,7.15-941.84,935.25Z"/>
  </g>
  <g id="anger-background">
    <path class="cls-31" d="M1117.42,2443.31c0-368.58,146.55-701.14,388.1-942.68l939.22,942.58-1327.32.1Z"/>
  </g>
  <g id="anticipation-background">
    <path class="cls-91" d="M1503.06,1501.24c259.96-261.29,598.41-393.67,940-394.54l1.01,1330.64-941.01-936.09Z"/>
  </g>
  <g id="segment-labels">
    <circle class="cls-75" cx="2489.58" cy="2461.8" r="183.18"/>
    <path class="cls-21" d="M2447.83,2443.31h1331.22"/>
    <path class="cls-20" d="M2450.04,2446.12l937.24,937.24"/>
    <path class="cls-19" d="M2447.83,2443.31l1230.26,509.44"/>
    <path class="cls-22" d="M2447.83,2443.31l1104.04,740.43"/>
    <path class="cls-18" d="M2447.83,2443.31l1305.75,260.46"/>
    <path class="cls-27" d="M2451.61,2439.53l502.4-1231.42"/>
    <path class="cls-25" d="M2447.83,2443.31l743.56-1107.96"/>
    <path class="cls-26" d="M2447.83,2443.31l258.65-1310.02"/>
    <path class="cls-12" d="M2447.83,2443.31l3.77,1328.89"/>
    <path class="cls-13" d="M2447.83,2443.31l511.35,1226.33"/>
    <path class="cls-11" d="M2447.83,2443.31l255.3,1300.12"/>
    <path class="cls-14" d="M2450.04,2446.12l731.98,1104.69"/>
    <path class="cls-16" d="M2447.83,2443.31l-1108.99-743.52"/>
    <path class="cls-17" d="M2447.83,2443.31l-1309.37-255.89"/>
    <path class="cls-15" d="M2447.83,2443.31l-1233-511.02"/>
    <path class="cls-5" d="M2447.83,2443.31l-505.33,1229.86"/>
    <path class="cls-4" d="M2447.83,2443.31l-740.59,1104.92"/>
    <path class="cls-6" d="M2447.83,2443.31l-261.94,1302.66"/>
    <path class="cls-8" d="M2447.83,2443.31l-509.02-1235.05"/>
    <path class="cls-9" d="M2450.04,2446.12l-266.6-1312.19"/>
    <path class="cls-7" d="M2447.83,2443.31l-739.26-1112.53"/>
    <path class="cls-30" d="M2447.83,2443.31l1230.26-509.44"/>
    <path class="cls-29" d="M2447.83,2443.31l1306.16-259.43"/>
    <path class="cls-28" d="M2447.83,2443.31l1104.84-744.09"/>
    <path class="cls-24" d="M2447.83,2443.31l943.1-943.1"/>
    <path class="cls-4" d="M2447.83,2443.31l-943.21,939.41"/>
    <path class="cls-9" d="M2447.83,2443.31l-1.39-1335.62"/>
    <path class="cls-16" d="M2447.83,2443.31l-941.29-947.43"/>
    <path class="cls-23" d="M2447.83,2443.31h-1333.51"/>
    <path class="cls-23" d="M2447.83,2443.31l-1307.24,259.94"/>
    <path class="cls-2" d="M2447.83,2443.31l-1229.56,512.57"/>
    <path class="cls-3" d="M2447.83,2443.31l-1108.26,737.89"/>
    <path class="cls-75" d="M2464.04,2283.1c-5.06,0-9.8.35-14.4.81-1.74.15-3.44.46-5.13.69-2.59.39-5.13.85-7.57,1.39-2.12.5-4.25.97-6.29,1.58-1.54.42-2.97.97-4.48,1.47-39.91,13.97-60.95,52.46-64.08,113.45v1.04c-.31,5.06-.42,10.23-.42,15.56,10.73-12.2,30.22-33.62,73.11-33.62,54.12,0,85.31,34.12,85.31,92.14,0,45.32-20.23,74.65-56.24,86.97h.15c89.24,0,102.41-56.7,102.41-145.45s-32.12-136.03-102.37-136.03ZM2424.09,2405.96c-35.4,0-53.85,27.6-61.88,38.75.66,16.95,2.16,32.5,5.06,46.28l.5,2.24c.42,1.89.93,3.71,1.43,5.52,7.14,26.29,21.77,51.96,53,51.96,40.45,0,54.58-34.62,54.58-71.18,0-41.42-17.06-73.61-52.65-73.61l-.04.04Z"/>
    <circle class="cls-75" cx="2445.13" cy="2436.21" r="292.92"/>
    <circle class="cls-75" cx="2459.17" cy="2460.14" r="206.51"/>
    <g>
      <g class="cls-97">
        <g>
          <path class="cls-92" d="M4176.58,716.57c56.63,56.67,110.4,115.97,161.22,177.92,50.84,61.92,98.51,126.2,143.03,192.84,44.52,66.61,85.67,135.26,123.43,205.93,37.79,70.67,71.99,143.03,102.66,217.06,30.65,74,57.61,149.36,80.89,226.03,23.25,76.71,42.7,154.33,58.33,232.92,15.64,78.59,27.37,157.76,35.24,237.48,7.83,79.76,11.77,159.68,11.77,239.81h-2446.57l1730-1730Z"/>
          <path class="cls-32" d="M2446.57,0c80.14,0,160.05,3.93,239.81,11.77,79.73,7.87,158.89,19.6,237.48,35.24,78.59,15.64,156.21,35.08,232.92,58.33,76.68,23.28,152.03,50.25,226.03,80.89,74.03,30.68,146.4,64.88,217.06,102.66,70.67,37.76,139.32,78.91,205.93,123.43,66.64,44.52,130.92,92.19,192.84,143.03,61.95,50.81,121.26,104.58,177.92,161.22l-1730,1730V0Z"/>
          <path class="cls-90" d="M4893.15,2446.57c0,80.14-3.93,160.05-11.77,239.81-7.87,79.73-19.6,158.89-35.24,237.48-15.64,78.59-35.08,156.21-58.33,232.92-23.28,76.68-50.25,152.03-80.89,226.03-30.68,74.03-64.88,146.4-102.66,217.06-37.76,70.67-78.91,139.32-123.43,205.93-44.52,66.64-92.19,130.92-143.03,192.84-50.81,61.95-104.58,121.26-161.22,177.92l-1730-1730h2446.57Z"/>
          <path class="cls-94" d="M4176.58,4176.58c-56.67,56.63-115.97,110.4-177.92,161.22-61.92,50.84-126.2,98.51-192.84,143.03-66.61,44.52-135.26,85.67-205.93,123.43-70.67,37.79-143.03,71.99-217.06,102.66-74,30.65-149.36,57.61-226.03,80.89-76.71,23.25-154.33,42.7-232.92,58.33-78.59,15.64-157.76,27.37-237.48,35.24-79.76,7.83-159.68,11.77-239.81,11.77v-2446.57l1730,1730Z"/>
          <path class="cls-98" d="M2446.57,4893.15c-80.14,0-160.05-3.93-239.81-11.77-79.73-7.87-158.89-19.6-237.48-35.24-78.59-15.64-156.21-35.08-232.92-58.33-76.68-23.28-152.03-50.25-226.03-80.89-74.03-30.68-146.4-64.88-217.06-102.66-70.67-37.76-139.32-78.91-205.93-123.43-66.64-44.52-130.92-92.19-192.84-143.03-61.95-50.81-121.26-104.58-177.92-161.22l1730-1730v2446.57Z"/>
          <path class="cls-93" d="M716.57,4176.58c-56.63-56.67-110.4-115.97-161.22-177.92-50.84-61.92-98.51-126.2-143.03-192.84-44.52-66.61-85.67-135.26-123.43-205.93-37.79-70.67-71.99-143.03-102.66-217.06-30.65-74-57.61-149.36-80.89-226.03-23.25-76.71-42.7-154.33-58.33-232.92-15.64-78.59-27.37-157.76-35.24-237.48-7.83-79.76-11.77-159.68-11.77-239.81h2446.57l-1730,1730Z"/>
          <path class="cls-31" d="M0,2446.57c0-80.14,3.93-160.05,11.77-239.81,7.87-79.73,19.6-158.89,35.24-237.48,15.64-78.59,35.08-156.21,58.33-232.92,23.28-76.68,50.25-152.03,80.89-226.03,30.68-74.03,64.88-146.4,102.66-217.06,37.76-70.67,78.91-139.32,123.43-205.93,44.52-66.64,92.19-130.92,143.03-192.84,50.81-61.95,104.58-121.26,161.22-177.92l1730,1730H0Z"/>
          <path class="cls-91" d="M716.57,716.57c56.67-56.63,115.94-110.37,177.89-161.22,61.92-50.81,126.2-98.48,192.81-143,66.61-44.52,135.26-85.64,205.93-123.43,70.63-37.76,142.97-71.99,217-102.63,74-30.68,149.36-57.64,226.03-80.89,76.68-23.28,154.3-42.73,232.86-58.36,78.59-15.64,157.72-27.37,237.45-35.24,79.76-7.87,159.68-11.8,239.78-11.8l.25,2446.57L716.57,716.57Z"/>
        </g>
      </g>
      <path class="cls-46" d="M2446.39,2980.47c-72.95,0-143.74-14.3-210.41-42.5-64.37-27.23-122.17-66.19-171.79-115.82-49.62-49.62-88.59-107.42-115.82-171.79-28.2-66.67-42.5-137.46-42.5-210.41s14.3-143.74,42.5-210.41c27.23-64.37,66.19-122.17,115.82-171.79,49.62-49.62,107.42-88.59,171.79-115.82,66.67-28.2,137.46-42.5,210.41-42.5s143.74,14.3,210.41,42.5c64.37,27.23,122.17,66.19,171.79,115.82,49.62,49.62,88.59,107.42,115.82,171.79,28.2,66.67,42.5,137.46,42.5,210.41s-14.3,143.74-42.5,210.41c-27.23,64.37-66.19,122.17-115.82,171.79-49.62,49.62-107.42,88.59-171.79,115.82-66.67,28.2-137.46,42.5-210.41,42.5ZM2446.39,1997.5c-243.97,0-442.45,198.48-442.45,442.45s198.48,442.45,442.45,442.45,442.45-198.48,442.45-442.45-198.48-442.45-442.45-442.45Z"/>
    </g>
    <text class="cls-96" transform="translate(1984.39 2519.82) rotate(-99.3)"><tspan x="0" y="0"> </tspan></text>
    <text class="cls-96" transform="translate(1981.76 2504.02) rotate(-97.35)"><tspan x="0" y="0"> </tspan></text>
    <text class="cls-96" transform="translate(1979.68 2488.12) rotate(-95.4)"><tspan x="0" y="0"> </tspan></text>
    <text class="cls-96" transform="translate(1978.14 2472.18) rotate(-93.45)"><tspan x="0" y="0"> </tspan></text>
    <text class="cls-96" transform="translate(1977.14 2456.17) rotate(-91.49)"><tspan x="0" y="0"> </tspan></text>
    <text class="cls-96" transform="translate(1976.69 2440.17) rotate(-89.54)"><tspan x="0" y="0"> </tspan></text>
    <text class="cls-96" transform="translate(1976.78 2424.16) rotate(-87.58)"><tspan x="0" y="0"> </tspan></text>
    <text class="cls-96" transform="translate(1977.43 2408.14) rotate(-85.61)"><tspan x="0" y="0"> </tspan></text>
    <text class="cls-96" transform="translate(1977.89 2392.58) rotate(-81.49)"><tspan x="0" y="0">A</tspan></text>
    <text class="cls-96" transform="translate(1985.43 2341.91) rotate(-75.45)"><tspan x="0" y="0">n</tspan></text>
    <text class="cls-96" transform="translate(1997.11 2296.22) rotate(-69.61)"><tspan x="0" y="0">g</tspan></text>
    <text class="cls-96" transform="translate(2013.98 2250.8) rotate(-64.02)"><tspan x="0" y="0">e</tspan></text>
    <text class="cls-96" transform="translate(2033.48 2211.26) rotate(-59.7)"><tspan x="0" y="0">r</tspan></text>
    <text class="cls-96" transform="translate(2047.89 2186.79) rotate(-57.03)"><tspan x="0" y="0"> </tspan></text>
    <text class="cls-96" transform="translate(2056.57 2173.34) rotate(-55.08)"><tspan x="0" y="0">	</tspan></text>
    <text class="cls-96" transform="translate(2068.06 2156.96) rotate(-52.64)"><tspan x="0" y="0"> </tspan></text>
    <text class="cls-96" transform="translate(2077.76 2144.2) rotate(-50.67)"><tspan x="0" y="0"> </tspan></text>
    <text class="cls-96" transform="translate(2087.05 2131.7) rotate(-46.55)"><tspan x="0" y="0">A</tspan></text>
    <text class="cls-96" transform="translate(2122.25 2094.49) rotate(-40.52)"><tspan x="0" y="0">n</tspan></text>
    <text class="cls-96" transform="translate(2158.49 2063.93) rotate(-35.97)"><tspan x="0" y="0">t</tspan></text>
    <text class="cls-96" transform="translate(2180.47 2048.04) rotate(-33.16)"><tspan x="0" y="0">i</tspan></text>
    <text class="cls-96" transform="translate(2195.83 2037.43) rotate(-29.39)"><tspan x="0" y="0">c</tspan></text>
    <text class="cls-96" transform="translate(2233.54 2016.56) rotate(-25.63)"><tspan x="0" y="0">i</tspan></text>
    <text class="cls-96" transform="translate(2250.04 2007.96) rotate(-21.55)"><tspan x="0" y="0">p</tspan></text>
    <text class="cls-96" transform="translate(2295.02 1990.04) rotate(-15.68)"><tspan x="0" y="0">a</tspan></text>
    <text class="cls-96" transform="translate(2341.95 1977.21) rotate(-11.11)"><tspan x="0" y="0">t</tspan></text>
    <text class="cls-96" transform="translate(2368.58 1972.03) rotate(-8.32)"><tspan x="0" y="0">i</tspan></text>
    <text class="cls-96" transform="translate(2386.95 1968.8) rotate(-4.4)"><tspan x="0" y="0">o</tspan></text>
    <text class="cls-96" transform="translate(2432.23 1965.13) rotate(1.25)"><tspan x="0" y="0">n</tspan></text>
    <text class="cls-96" transform="translate(2479.73 1966.63) rotate(5.12)"><tspan x="0" y="0"> </tspan></text>
    <text class="cls-96" transform="translate(2495.67 1968.02) rotate(7.08)"><tspan x="0" y="0"> </tspan></text>
    <text class="cls-96" transform="translate(2511.57 1969.96) rotate(9.05)"><tspan x="0" y="0"> </tspan></text>
    <text class="cls-96" transform="translate(2527.38 1972.45) rotate(11.02)"><tspan x="0" y="0"> </tspan></text>
    <text class="cls-96" transform="translate(2543.11 1975.48) rotate(12.99)"><tspan x="0" y="0"> </tspan></text>
    <text class="cls-96" transform="translate(2558.54 1978.58) rotate(16.46)"><tspan x="0" y="0">J</tspan></text>
    <text class="cls-96" transform="translate(2597.32 1989.78) rotate(21.7)"><tspan x="0" y="0">o</tspan></text>
    <text class="cls-96" transform="translate(2639.63 2006.58) rotate(26.98)"><tspan x="0" y="0">y</tspan></text>
    <text class="cls-96" transform="translate(2678.05 2026.56) rotate(30.57)"><tspan x="0" y="0"> </tspan></text>
    <text class="cls-96" transform="translate(2691.87 2034.69) rotate(32.51)"><tspan x="0" y="0"> </tspan></text>
    <text class="cls-96" transform="translate(2705.41 2043.27) rotate(34.45)"><tspan x="0" y="0"> </tspan></text>
    <text class="cls-96" transform="translate(2718.64 2052.31) rotate(36.41)"><tspan x="0" y="0"> </tspan></text>
    <text class="cls-96" transform="translate(2731.54 2061.79) rotate(38.37)"><tspan x="0" y="0"> </tspan></text>
    <text class="cls-96" transform="translate(2744.13 2071.71) rotate(40.33)"><tspan x="0" y="0"> </tspan></text>
    <text class="cls-96" transform="translate(2756.35 2082.04) rotate(42.3)"><tspan x="0" y="0"> </tspan></text>
    <text class="cls-96" transform="translate(2768.24 2092.81) rotate(44.27)"><tspan x="0" y="0"> </tspan></text>
    <text class="cls-96" transform="translate(2779.73 2103.97) rotate(46.24)"><tspan x="0" y="0"> </tspan></text>
    <text class="cls-96" transform="translate(2790.82 2115.5) rotate(48.21)"><tspan x="0" y="0"> </tspan></text>
    <text class="cls-96" transform="translate(2801.51 2127.41) rotate(50.17)"><tspan x="0" y="0"> </tspan></text>
    <text class="cls-96" transform="translate(2811.81 2139.7) rotate(52.14)"><tspan x="0" y="0"> </tspan></text>
    <text class="cls-96" transform="translate(2821.65 2152.31) rotate(54.1)"><tspan x="0" y="0"> </tspan></text>
    <text class="cls-96" transform="translate(2831.09 2165.29) rotate(56.06)"><tspan x="0" y="0"> </tspan></text>
    <text class="cls-96" transform="translate(2840.06 2178.56) rotate(58.02)"><tspan x="0" y="0"> </tspan></text>
    <text class="cls-96" transform="translate(2848.75 2191.62) rotate(61.49)"><tspan x="0" y="0">T</tspan></text>
    <text class="cls-96" transform="translate(2868.26 2227.84) rotate(65.7)"><tspan x="0" y="0">r</tspan></text>
    <text class="cls-96" transform="translate(2880.22 2253.15) rotate(70.26)"><tspan x="0" y="0">u</tspan></text>
    <text class="cls-96" transform="translate(2896.1 2297.66) rotate(75.46)"><tspan x="0" y="0">s</tspan></text>
    <text class="cls-96" transform="translate(2905.71 2335.18) rotate(79.44)"><tspan x="0" y="0">t</tspan></text>
    <text class="cls-95" transform="translate(2861.83 2113.31) rotate(-126.31)"><tspan x="0" y="0"> </tspan></text>
    <text class="cls-95" transform="translate(2851.23 2098.9) rotate(-128.24)"><tspan x="0" y="0"> </tspan></text>
    <text class="cls-95" transform="translate(2840.16 2084.84) rotate(-130.18)"><tspan x="0" y="0"> </tspan></text>
    <text class="cls-95" transform="translate(2828.62 2071.17) rotate(-132.11)"><tspan x="0" y="0"> </tspan></text>
    <text class="cls-95" transform="translate(2816.63 2057.91) rotate(-134.05)"><tspan x="0" y="0"> </tspan></text>
    <text class="cls-95" transform="translate(2804.19 2045.06) rotate(-136)"><tspan x="0" y="0"> </tspan></text>
    <text class="cls-95" transform="translate(2791.31 2032.61) rotate(-137.95)"><tspan x="0" y="0"> </tspan></text>
    <text class="cls-95" transform="translate(2778.01 2020.61) rotate(-139.91)"><tspan x="0" y="0"> </tspan></text>
    <text class="cls-95" transform="translate(2764.31 2009.08) rotate(-141.87)"><tspan x="0" y="0">	</tspan></text>
    <text class="cls-95" transform="translate(2737.3 1988.54) rotate(-145.61)"><tspan x="0" y="0">	</tspan></text>
    <text class="cls-95" transform="translate(2707.69 1969) rotate(-149.53)"><tspan x="0" y="0">	</tspan></text>
    <text class="cls-95" transform="translate(2676.82 1951.54) rotate(-153.48)"><tspan x="0" y="0">	</tspan></text>
    <text class="cls-95" transform="translate(2644.78 1936.23) rotate(-157.46)"><tspan x="0" y="0">	</tspan></text>
    <text class="cls-95" transform="translate(2611.76 1923.18) rotate(-161.44)"><tspan x="0" y="0">	</tspan></text>
    <text class="cls-95" transform="translate(2577.9 1912.46) rotate(-165.42)"><tspan x="0" y="0">	</tspan></text>
    <text class="cls-95" transform="translate(2543.41 1904.12) rotate(-169.4)"><tspan x="0" y="0">	</tspan></text>
    <text class="cls-95" transform="translate(2508.41 1898.18) rotate(-173.35)"><tspan x="0" y="0">	</tspan></text>
    <text class="cls-95" transform="translate(2472.55 1894.59) rotate(-177.62)"><tspan x="0" y="0">	</tspan></text>
    <text class="cls-95" transform="translate(2437.73 1893.56) rotate(178.87)"><tspan x="0" y="0">	</tspan></text>
    <text class="cls-95" transform="translate(2402.25 1894.86) rotate(174.9)"><tspan x="0" y="0">	</tspan></text>
    <text class="cls-95" transform="translate(2366.9 1898.64) rotate(170.84)"><tspan x="0" y="0">	</tspan></text>
    <text class="cls-95" transform="translate(2331.85 1904.94) rotate(166.71)"><tspan x="0" y="0">	</tspan></text>
    <text class="cls-95" transform="translate(2297.29 1913.76) rotate(162.53)"><tspan x="0" y="0">	</tspan></text>
    <text class="cls-95" transform="translate(2263.47 1925.09) rotate(158.33)"><tspan x="0" y="0">	</tspan></text>
    <text class="cls-95" transform="translate(2230.55 1938.87) rotate(154.12)"><tspan x="0" y="0">	</tspan></text>
    <text class="cls-95" transform="translate(2198.75 1955.01) rotate(149.92)"><tspan x="0" y="0">	</tspan></text>
    <text class="cls-95" transform="translate(2168.23 1973.44) rotate(145.73)"><tspan x="0" y="0">	</tspan></text>
    <text class="cls-95" transform="translate(2139.15 1994.03) rotate(141.58)"><tspan x="0" y="0">	</tspan></text>
    <text class="cls-95" transform="translate(2111.65 2016.65) rotate(137.47)"><tspan x="0" y="0">	</tspan></text>
    <text class="cls-95" transform="translate(2085.87 2041.16) rotate(133.4)"><tspan x="0" y="0">	</tspan></text>
    <text class="cls-95" transform="translate(2061.9 2067.4) rotate(129.38)"><tspan x="0" y="0">	</tspan></text>
    <text class="cls-95" transform="translate(2039.85 2095.23) rotate(125.41)"><tspan x="0" y="0">	</tspan></text>
    <text class="cls-95" transform="translate(2019.81 2124.45) rotate(121.5)"><tspan x="0" y="0">	</tspan></text>
    <text class="cls-95" transform="translate(2001.8 2154.96) rotate(117.65)"><tspan x="0" y="0">	</tspan></text>
    <text class="cls-95" transform="translate(1985.92 2186.53) rotate(113.85)"><tspan x="0" y="0">	</tspan></text>
    <text class="cls-95" transform="translate(1972.15 2219.09) rotate(110.12)"><tspan x="0" y="0">	</tspan></text>
    <text class="cls-95" transform="translate(1960.54 2252.39) rotate(106.45)"><tspan x="0" y="0">	</tspan></text>
    <text class="cls-95" transform="translate(1951.09 2286.34) rotate(102.84)"><tspan x="0" y="0">	</tspan></text>
    <text class="cls-95" transform="translate(1943.8 2320.75) rotate(99.3)"><tspan x="0" y="0">	</tspan></text>
    <text class="cls-95" transform="translate(1938.64 2355.47) rotate(95.84)"><tspan x="0" y="0">	</tspan></text>
    <text class="cls-95" transform="translate(1935.58 2390.44) rotate(92.44)"><tspan x="0" y="0">	</tspan></text>
    <text class="cls-95" transform="translate(1934.59 2425.48) rotate(89.03)"><tspan x="0" y="0">	</tspan></text>
    <text class="cls-95" transform="translate(1935.7 2460.59) rotate(85.58)"><tspan x="0" y="0"> </tspan></text>
    <text class="cls-95" transform="translate(1937.07 2478.31) rotate(83.82)"><tspan x="0" y="0"> </tspan></text>
    <text class="cls-95" transform="translate(1938.98 2495.97) rotate(82.05)"><tspan x="0" y="0"> </tspan></text>
    <text class="cls-95" transform="translate(1941.09 2515.11) rotate(78.3)"><tspan x="0" y="0">D</tspan></text>
    <text class="cls-95" transform="translate(1952.96 2569.36) rotate(74.33)"><tspan x="0" y="0">i</tspan></text>
    <text class="cls-95" transform="translate(1958.63 2590.55) rotate(71.04)"><tspan x="0" y="0">s</tspan></text>
    <text class="cls-95" transform="translate(1972.62 2631.65) rotate(65.99)"><tspan x="0" y="0">g</tspan></text>
    <text class="cls-95" transform="translate(1994.68 2680.8) rotate(60.33)"><tspan x="0" y="0">u</tspan></text>
    <text class="cls-95" transform="translate(2020.81 2726.05) rotate(55.13)"><tspan x="0" y="0">s</tspan></text>
    <text class="cls-95" transform="translate(2045.38 2760.87) rotate(51.08)"><tspan x="0" y="0">t</tspan></text>
    <text class="cls-95" transform="translate(2064.2 2783.94) rotate(48.38)"><tspan x="0" y="0"> </tspan></text>
    <text class="cls-95" transform="translate(2076.14 2797.38) rotate(46.35)"><tspan x="0" y="0"> </tspan></text>
    <text class="cls-95" transform="translate(2088.54 2810.39) rotate(44.3)"><tspan x="0" y="0"> </tspan></text>
    <text class="cls-95" transform="translate(2101.41 2822.95) rotate(42.24)"><tspan x="0" y="0"> </tspan></text>
    <text class="cls-95" transform="translate(2115.43 2836.25) rotate(38.39)"><tspan x="0" y="0">S</tspan></text>
    <text class="cls-95" transform="translate(2153.83 2866.66) rotate(32.34)"><tspan x="0" y="0">a</tspan></text>
    <text class="cls-95" transform="translate(2199.99 2895.66) rotate(25.86)"><tspan x="0" y="0">d</tspan></text>
    <text class="cls-95" transform="translate(2249.08 2919.22) rotate(19.45)"><tspan x="0" y="0">n</tspan></text>
    <text class="cls-95" transform="translate(2299.06 2936.59) rotate(13.38)"><tspan x="0" y="0">e</tspan></text>
    <text class="cls-95" transform="translate(2346.86 2947.7) rotate(7.98)"><tspan x="0" y="0">s</tspan></text>
    <text class="cls-95" transform="translate(2390.22 2953.88) rotate(2.36)"><tspan x="0" y="0">s</tspan></text>
    <text class="cls-95" transform="translate(2431.82 2955.49) rotate(-.31)"><tspan x="0" y="0"> </tspan></text>
    <text class="cls-95" transform="translate(2449.74 2955.4) rotate(-2.3)"><tspan x="0" y="0"> </tspan></text>
    <text class="cls-95" transform="translate(2467.66 2954.68) rotate(-4.3)"><tspan x="0" y="0"> </tspan></text>
    <text class="cls-95" transform="translate(2485.56 2953.33) rotate(-6.31)"><tspan x="0" y="0"> </tspan></text>
    <text class="cls-95" transform="translate(2504.72 2951.63) rotate(-10.04)"><tspan x="0" y="0">S</tspan></text>
    <text class="cls-95" transform="translate(2552.66 2943.1) rotate(-15.72)"><tspan x="0" y="0">u</tspan></text>
    <text class="cls-95" transform="translate(2603.5 2928.67) rotate(-21.69)"><tspan x="0" y="0">p</tspan></text>
    <text class="cls-95" transform="translate(2652.74 2908.53) rotate(-26.44)"><tspan x="0" y="0">r</tspan></text>
    <text class="cls-95" transform="translate(2680.56 2894.54) rotate(-29.36)"><tspan x="0" y="0">i</tspan></text>
    <text class="cls-95" transform="translate(2699.96 2883.95) rotate(-32.89)"><tspan x="0" y="0">s</tspan></text>
    <text class="cls-95" transform="translate(2736.4 2860.41) rotate(-37.92)"><tspan x="0" y="0">e</tspan></text>
    <text class="cls-95" transform="translate(2773.76 2830.68) rotate(-41.55)"><tspan x="0" y="0"> </tspan></text>
    <text class="cls-95" transform="translate(2787.15 2818.82) rotate(-43.48)"><tspan x="0" y="0"> </tspan></text>
    <text class="cls-95" transform="translate(2800.12 2806.52) rotate(-45.42)"><tspan x="0" y="0"> </tspan></text>
    <text class="cls-95" transform="translate(2812.68 2793.78) rotate(-47.35)"><tspan x="0" y="0"> </tspan></text>
    <text class="cls-95" transform="translate(2824.8 2780.62) rotate(-49.27)"><tspan x="0" y="0"> </tspan></text>
    <text class="cls-95" transform="translate(2836.45 2767.09) rotate(-51.2)"><tspan x="0" y="0"> </tspan></text>
    <text class="cls-95" transform="translate(2847.66 2753.15) rotate(-53.12)"><tspan x="0" y="0"> </tspan></text>
    <text class="cls-95" transform="translate(2858.39 2738.86) rotate(-55.04)"><tspan x="0" y="0"> </tspan></text>
    <text class="cls-95" transform="translate(2868.65 2724.18) rotate(-56.97)"><tspan x="0" y="0"> </tspan></text>
    <text class="cls-95" transform="translate(2878.38 2709.22) rotate(-58.89)"><tspan x="0" y="0"> </tspan></text>
    <text class="cls-95" transform="translate(2888.37 2693.21) rotate(-62.1)"><tspan x="0" y="0">F</tspan></text>
    <text class="cls-95" transform="translate(2908.12 2656.01) rotate(-66.97)"><tspan x="0" y="0">e</tspan></text>
    <text class="cls-95" transform="translate(2927.34 2610.76) rotate(-72.49)"><tspan x="0" y="0">a</tspan></text>
    <text class="cls-95" transform="translate(2942.85 2560) rotate(-77.05)"><tspan x="0" y="0">r</tspan></text>
    <path class="cls-75" d="M2440,2328.21c-4.21,0-8.18.29-12.01.69-1.46.14-2.86.39-4.29.59-2.17.32-4.28.7-6.31,1.15-1.79.41-3.53.82-5.23,1.33-1.28.36-2.49.8-3.72,1.22-33.32,11.63-50.86,43.73-53.46,94.59l-.04.87c-.2,4.21-.31,8.52-.31,12.97,8.94-10.16,25.21-28.05,60.99-28.05,45.13,0,71.14,28.46,71.14,76.84,0,37.8-16.86,62.26-46.9,72.52l.14.02c74.43,0,85.4-47.31,85.4-121.33s-26.8-113.43-85.4-113.43M2406.67,2430.67c-29.53,0-44.9,23.03-51.62,32.34.56,14.14,1.79,27.1,4.2,38.59l.41,1.87c.35,1.58.79,3.07,1.19,4.61,5.97,21.93,18.17,43.35,44.19,43.35,33.75,0,45.54-28.88,45.54-59.36,0-34.56-14.23-61.4-43.91-61.4"/>
    <g>
      <path class="cls-75" d="M2358.35,2700.87l-60.96,72.31-24.35-11.63,12.77-60.65-39.6,47.84-24.35-11.63,18.49-92.59,21.53,10.28-16.82,65.79,43.41-53.1,22.12,10.56-14.58,66.86,40.7-54.39,21.65,10.33Z"/>
      <path class="cls-75" d="M2445.09,2716.85l-15.7,90.17-21.96-3.82,6.46-37.12-34.16-5.95-6.46,37.12-21.96-3.82,15.7-90.16,21.96,3.82-6.15,35.32,34.17,5.95,6.15-35.32,21.96,3.82Z"/>
      <path class="cls-75" d="M2482.6,2727.8l3.88,18.1,29.19-6.26,3.61,16.83-29.19,6.27,4.21,19.63,33.02-7.09,3.75,17.46-54.81,11.77-19.21-89.49,54.81-11.76,3.75,17.46-33.01,7.09Z"/>
      <path class="cls-75" d="M2548.58,2700.23l8.8,16.29,26.27-14.19,8.18,15.14-26.27,14.19,9.54,17.67,29.71-16.05,8.49,15.72-49.33,26.64-43.49-80.53,49.33-26.64,8.49,15.72-29.71,16.04Z"/>
      <path class="cls-75" d="M2648.36,2701.27l21.08-20.22,11.91,12.42-37.16,35.65-63.36-66.05,16.09-15.43,51.44,53.63Z"/>
    </g>
    <g>
      <path class="cls-75" d="M2224.41,2162.67l10.51,13.43-28.04,21.95,11.36,14.51,20.98-16.42,10.21,13.04-20.98,16.42,21.79,27.84-16.76,13.12-53.87-68.82,44.8-35.07Z"/>
      <path class="cls-75" d="M2274.86,2154.34l7.74,15.89,25.63-12.49,7.2,14.77-25.63,12.49,8.4,17.23,28.98-14.12,7.47,15.33-48.12,23.45-38.28-78.56,48.12-23.45,7.47,15.33-28.99,14.12Z"/>
      <path class="cls-75" d="M2348.59,2126.41l4.55,17.08,27.55-7.34,4.23,15.88-27.55,7.34,4.94,18.53,31.16-8.31,4.39,16.48-51.72,13.79-22.51-84.44,51.72-13.79,4.39,16.48-31.16,8.31Z"/>
      <path class="cls-75" d="M2430.66,2167.64l27.85-1.42.84,16.41-49.11,2.5-4.45-87.28,21.26-1.08,3.61,70.87Z"/>
      <path class="cls-75" d="M2498.82,2099.32l-8.79,86.95-21.18-2.14,8.79-86.95,21.18,2.14Z"/>
      <path class="cls-75" d="M2578.74,2209.58l-20.32-6.36-17.88-62.08-16.1,51.44-20.32-6.36,26.1-83.4,20.32,6.36,17.8,62.32,16.18-51.68,20.32,6.36-26.11,83.4Z"/>
      <path class="cls-75" d="M2671.36,2197.51c.31-3.29-.34-6.39-1.93-9.31-1.59-2.92-4.04-5.48-7.35-7.7-5.72-3.84-11.57-5.03-17.53-3.58-5.97,1.45-11.05,5.31-15.26,11.58-4.48,6.69-6.17,13.12-5.07,19.31,1.1,6.18,4.82,11.4,11.16,15.65,4.34,2.91,8.75,4.27,13.23,4.07,4.48-.19,8.79-1.9,12.94-5.11l-22.44-15.04,8.73-13.03,38.47,25.79-11.02,16.44c-4.27,3.53-9.24,6.15-14.92,7.83-5.68,1.69-11.72,2.09-18.11,1.2-6.4-.89-12.63-3.37-18.69-7.44-7.17-4.81-12.51-10.66-16.03-17.56-3.52-6.9-4.97-14.2-4.37-21.88.61-7.69,3.31-15.11,8.12-22.28,4.81-7.17,10.66-12.51,17.56-16.03,6.9-3.52,14.2-4.97,21.88-4.36,7.69.61,15.11,3.31,22.28,8.12,8.69,5.82,14.6,12.84,17.75,21.04,3.14,8.2,3.18,16.67.13,25.41l-19.54-13.1Z"/>
    </g>
    <text class="cls-33" transform="translate(2361.41 2600.38)"><tspan x="0" y="0">6sec.org</tspan></text>
  </g>
  <g id="outer-ring">
    <circle class="cls-10" cx="2444.07" cy="2437.45" r="1334.76"/>
  </g>
  <g id="joy-1-optimistic">
    <text class="cls-38" transform="translate(2522.5 1339.38) rotate(-87)"><tspan x="0" y="0">Positive</tspan></text>
    <text class="cls-41" transform="translate(2627.17 1363.04) rotate(-82)"><tspan x="0" y="0">Inspired</tspan></text>
    <text class="cls-37" transform="translate(2529.67 1870.74) rotate(-85)"><tspan x="0" y="0">Optimistic</tspan></text>
  </g>
  <g id="joy-2-confident">
    <text class="cls-39" transform="translate(2747.22 1329.89) rotate(-76)"><tspan x="0" y="0">Proud</tspan></text>
    <text class="cls-40" transform="translate(2796.15 1533.65) rotate(-70)"><tspan x="0" y="0">Self-assured</tspan></text>
    <text class="cls-34" transform="translate(2636.42 1897.99) rotate(-73)"><tspan x="0" y="0">Confident</tspan></text>
  </g>
  <g id="joy-3-joyful">
    <text class="cls-43" transform="translate(2936.66 1457.43) rotate(-65)"><tspan x="0" y="0">Ecstatic</tspan></text>
    <text class="cls-44" transform="translate(3007.82 1552.22) rotate(-59)"><tspan x="0" y="0">Delighted</tspan></text>
    <text class="cls-36" transform="translate(2744.13 1947.22) rotate(-62)"><tspan x="0" y="0">Joyful</tspan></text>
  </g>
  <g id="joy-4-loving">
    <text class="cls-45" transform="translate(3071.15 1634.37) rotate(-54)"><tspan x="0" y="0">Embracing</tspan></text>
    <text class="cls-42" transform="translate(3158.8 1678.2) rotate(-48)"><tspan x="0" y="0">Generous</tspan></text>
    <text class="cls-35" transform="translate(2837.96 2016.33) rotate(-51)"><tspan x="0" y="0">Loving</tspan></text>
  </g>
  <g id="anticipation-1-excited">
    <text class="cls-57" transform="translate(1566.49 1496.11) rotate(48)"><tspan x="0" y="0">Passionate</tspan></text>
    <text class="cls-59" transform="translate(1663.18 1417.12) rotate(53)"><tspan x="0" y="0">Energized</tspan></text>
    <text class="cls-82" transform="translate(1915.68 1837.06) rotate(50)"><tspan x="0" y="0">Excited</tspan></text>
  </g>
  <g id="anticipation-2-eager">
    <text class="cls-61" transform="translate(1769.55 1346.87) rotate(59)"><tspan x="0" y="0">Enthusisiastic</tspan></text>
    <text class="cls-60" transform="translate(1883.06 1284.23) rotate(65)"><tspan x="0" y="0">Motivated</tspan></text>
    <text class="cls-76" transform="translate(2066.76 1777.61) rotate(62)"><tspan x="0" y="0">Eager</tspan></text>
  </g>
  <g id="anticipation-3-interested">
    <text class="cls-53" transform="translate(1998.85 1237.28) rotate(70)"><tspan x="0" y="0">Impatient</tspan></text>
    <text class="cls-50" transform="translate(2117.22 1199.97) rotate(76)"><tspan x="0" y="0">Curious</tspan></text>
    <text class="cls-77" transform="translate(2160.81 1585.56) rotate(73)"><tspan x="0" y="0">Interested</tspan></text>
  </g>
  <g id="anticipation-4-stressed">
    <text class="cls-51" transform="translate(2242.67 1173.81) rotate(82)"><tspan x="0" y="0">Overwhelmed</tspan></text>
    <text class="cls-72" transform="translate(2365.81 1160.24) rotate(87)"><tspan x="0" y="0">Pressured</tspan></text>
    <text class="cls-85" transform="translate(2336.23 1594.76) rotate(84)"><tspan x="0" y="0">Stressed</tspan></text>
  </g>
  <g id="anger-1-aggressive">
    <text class="cls-58" transform="translate(1145.36 2397.38) rotate(3)"><tspan x="0" y="0">Hostile</tspan></text>
    <text class="cls-62" transform="translate(1155.99 2272.63) rotate(8)"><tspan x="0" y="0">Provoked</tspan></text>
    <text class="cls-76" transform="translate(1516.75 2380.4) rotate(5)"><tspan x="0" y="0">Aggressive</tspan></text>
  </g>
  <g id="anger-2-mad">
    <text class="cls-69" transform="translate(1179.97 2145.12) rotate(14)"><tspan x="0" y="0">Enraged</tspan></text>
    <text class="cls-56" transform="translate(1217.41 2017.93) rotate(20)"><tspan x="0" y="0">Furious</tspan></text>
    <text class="cls-89" transform="translate(1748.4 2257.16) rotate(17)"><tspan x="0" y="0">Mad</tspan></text>
  </g>
  <g id="anger-3-frustrated">
    <text class="cls-63" transform="translate(1264.75 1904.36) rotate(25)"><tspan x="0" y="0">Annoyed</tspan></text>
    <text class="cls-74" transform="translate(1325.16 1790.67) rotate(31)"><tspan x="0" y="0">Irritated</tspan></text>
    <text class="cls-87" transform="translate(1635.13 2032.86) rotate(29)"><tspan x="0" y="0">Frustrated</tspan></text>
  </g>
  <g id="anger-4-critical">
    <text class="cls-60" transform="translate(1395.01 1683.98) rotate(37)"><tspan x="0" y="0">Sarcastic</tspan></text>
    <text class="cls-62" transform="translate(1476.55 1587.74) rotate(42)"><tspan x="0" y="0">Skeptical</tspan></text>
    <text class="cls-80" transform="translate(1809.05 1953.63) rotate(39)"><tspan x="0" y="0">Critical</tspan></text>
  </g>
  <g id="disgust-1-dislike">
    <text class="cls-62" transform="translate(1498.08 3326.28) rotate(-42)"><tspan x="0" y="0">Revolted</tspan></text>
    <text class="cls-60" transform="translate(1417.46 3233.01) rotate(-37)"><tspan x="0" y="0">Withdrawn</tspan></text>
    <text class="cls-81" transform="translate(1860.3 2952.75) rotate(-39)"><tspan x="0" y="0">Dislike</tspan></text>
  </g>
  <g id="disgust-2-avoidance">
    <text class="cls-51" transform="translate(1343.42 3130.28) rotate(-31)"><tspan x="0" y="0">Hesitant</tspan></text>
    <text class="cls-63" transform="translate(1279.08 3014.67) rotate(-25)"><tspan x="0" y="0">Averse</tspan></text>
    <text class="cls-84" transform="translate(1639.94 2900.74) rotate(-28)"><tspan x="0" y="0">Avoidance</tspan></text>
  </g>
  <g id="disgust-3-aweful">
    <text class="cls-73" transform="translate(1229.27 2902.31) rotate(-20)"><tspan x="0" y="0">Repelled</tspan></text>
    <text class="cls-55" transform="translate(1188.97 2777.31) rotate(-14)"><tspan x="0" y="0">Detested</tspan></text>
    <text class="cls-79" transform="translate(1728.46 2684.69) rotate(-17)"><tspan x="0" y="0">Awful</tspan></text>
  </g>
  <g id="disgust-4-disapproval">
    <text class="cls-62" transform="translate(1159.67 2651.91) rotate(-8)"><tspan x="0" y="0">Loathing</tspan></text>
    <text class="cls-58" transform="translate(1146.67 2527.06) rotate(-3)"><tspan x="0" y="0">Judgmental</tspan></text>
    <text class="cls-78" transform="translate(1488.95 2567.28) rotate(-6)"><tspan x="0" y="0">Disapproval</tspan></text>
  </g>
  <g id="sad-1-hurt">
    <text class="cls-67" transform="translate(2409.03 3729.92) rotate(-87)"><tspan x="0" y="0">Dismayed</tspan></text>
    <text class="cls-66" transform="translate(2281.37 3720.19) rotate(-82)"><tspan x="0" y="0">Trheatened</tspan></text>
    <text class="cls-76" transform="translate(2401.12 3156.39) rotate(-85)"><tspan x="0" y="0">Hurt</tspan></text>
  </g>
  <g id="sad-2-depressed">
    <text class="cls-67" transform="translate(2151.86 3698.09) rotate(-75)"><tspan x="0" y="0">Bereft</tspan></text>
    <text class="cls-47" transform="translate(2038.68 3665.54) rotate(-71)"><tspan x="0" y="0">Numb</tspan></text>
    <text class="cls-83" transform="translate(2201.4 3338.25) rotate(-73)"><tspan x="0" y="0">Depressed</tspan></text>
  </g>
  <g id="sad-3-lonely">
    <text class="cls-53" transform="translate(1918.71 3619.57) rotate(-65)"><tspan x="0" y="0">Abandoned</tspan></text>
    <text class="cls-63" transform="translate(1805.64 3563.46) rotate(-60)"><tspan x="0" y="0">Isolated</tspan></text>
    <text class="cls-88" transform="translate(2100.05 3143.67) rotate(-62)"><tspan x="0" y="0">Lonely</tspan></text>
  </g>
  <g id="sad-4-ashamed">
    <text class="cls-49" transform="translate(1697.88 3495.16) rotate(-54)"><tspan x="0" y="0">Remoseful</tspan></text>
    <text class="cls-48" transform="translate(1594.08 3415.97) rotate(-48)"><tspan x="0" y="0">Guilty</tspan></text>
    <text class="cls-86" transform="translate(1900.07 3152.63) rotate(-51)"><tspan x="0" y="0">Ashamed</tspan></text>
  </g>
  <g id="surprise-1-startled">
    <text class="cls-60" transform="translate(3148.81 3238.06) rotate(47)"><tspan x="0" y="0">Appalled</tspan></text>
    <text class="cls-52" transform="translate(3072.5 3311.83) rotate(54)"><tspan x="0" y="0">Shocked</tspan></text>
    <text class="cls-82" transform="translate(2796.65 2907.04) rotate(50)"><tspan x="0" y="0">Startled</tspan></text>
  </g>
  <g id="surprise-2-confused">
    <text class="cls-53" transform="translate(2933.2 3282.32) rotate(59)"><tspan x="0" y="0">Disillusioned</tspan></text>
    <text class="cls-63" transform="translate(2876.67 3384.09) rotate(65)"><tspan x="0" y="0">Perplexed</tspan></text>
    <text class="cls-76" transform="translate(2701.3 2964.42) rotate(62)"><tspan x="0" y="0">Confused</tspan></text>
  </g>
  <g id="surprise-3-amazed">
    <text class="cls-64" transform="translate(2771.01 3389.13) rotate(71)"><tspan x="0" y="0">Astonished</tspan></text>
    <text class="cls-67" transform="translate(2715.94 3553.28) rotate(74)"><tspan x="0" y="0">Awed</tspan></text>
    <text class="cls-77" transform="translate(2593.01 3006.5) rotate(73)"><tspan x="0" y="0">Amazed</tspan></text>
  </g>
  <g id="surprise-4-disappointed">
    <text class="cls-49" transform="translate(2588.76 3484.92) rotate(82)"><tspan x="0" y="0">Betrayed</tspan></text>
    <text class="cls-65" transform="translate(2482.13 3466.06) rotate(87)"><tspan x="0" y="0">Dismayed</tspan></text>
    <text class="cls-85" transform="translate(2481.1 3024.3) rotate(84)"><tspan x="0" y="0">Disappointed</tspan></text>
  </g>
  <g id="trust-1-grateful">
    <text class="cls-60" transform="translate(3275.91 1714.81) rotate(-43)"><tspan x="0" y="0">Fulfilled</tspan></text>
    <text class="cls-59" transform="translate(3266.34 1861.61) rotate(-37)"><tspan x="0" y="0">Admiration</tspan></text>
    <text class="cls-81" transform="translate(2907.07 2091.66) rotate(-39)"><tspan x="0" y="0">Grateful</tspan></text>
  </g>
  <g id="trust-2-peaceful">
    <text class="cls-53" transform="translate(3447.42 1861.27) rotate(-31)"><tspan x="0" y="0">Calm</tspan></text>
    <text class="cls-70" transform="translate(3439.61 1992.67) rotate(-26)"><tspan x="0" y="0">Content</tspan></text>
    <text class="cls-84" transform="translate(2970.2 2192.58) rotate(-28)"><tspan x="0" y="0">Peaceful</tspan></text>
  </g>
  <g id="trust-3-accepted">
    <text class="cls-73" transform="translate(3501.89 2080.65) rotate(-20)"><tspan x="0" y="0">Valued</tspan></text>
    <text class="cls-54" transform="translate(3442.46 2212.77) rotate(-14)"><tspan x="0" y="0">Respected</tspan></text>
    <text class="cls-79" transform="translate(3010.05 2298.44) rotate(-17)"><tspan x="0" y="0">Accepted</tspan></text>
  </g>
  <g id="trust-4-hopeful">
    <text class="cls-56" transform="translate(3533.4 2297.66) rotate(-9)"><tspan x="0" y="0">Longing</tspan></text>
    <text class="cls-65" transform="translate(3492.19 2406.72) rotate(-3)"><tspan x="0" y="0">Expectant</tspan></text>
    <text class="cls-78" transform="translate(3027.57 2411.05) rotate(-6)"><tspan x="0" y="0">Hopeful</tspan></text>
  </g>
  <g id="fear-1-nervous">
    <text class="cls-68" transform="translate(3447.13 2505.53) rotate(2)"><tspan x="0" y="0">Threatened</tspan></text>
    <text class="cls-49" transform="translate(3541.78 2620.06) rotate(8)"><tspan x="0" y="0">Uneasy</tspan></text>
    <text class="cls-76" transform="translate(3022.6 2524.59) rotate(5)"><tspan x="0" y="0">Nervous</tspan></text>
  </g>
  <g id="fear-2-scared">
    <text class="cls-54" transform="translate(3436.17 2705.45) rotate(14)"><tspan x="0" y="0">Frightened</tspan></text>
    <text class="cls-73" transform="translate(3473.29 2825.43) rotate(20)"><tspan x="0" y="0">Terrified</tspan></text>
    <text class="cls-89" transform="translate(2995.48 2632.06) rotate(17)"><tspan x="0" y="0">Scared</tspan></text>
  </g>
  <g id="fear-3-anxious">
    <text class="cls-63" transform="translate(3473.32 2941.45) rotate(25)"><tspan x="0" y="0">Dread</tspan></text>
    <text class="cls-53" transform="translate(3424.54 3046.23) rotate(31)"><tspan x="0" y="0">Worry</tspan></text>
    <text class="cls-87" transform="translate(2948.68 2735.12) rotate(29)"><tspan x="0" y="0">Anxious</tspan></text>
  </g>
  <g id="fear-4-insecure">
    <text class="cls-71" transform="translate(3297.56 3090.6) rotate(36)"><tspan x="0" y="0">Rejected</tspan></text>
    <text class="cls-54" transform="translate(3173.15 3119.68) rotate(42)"><tspan x="0" y="0">Inadequate</tspan></text>
    <text class="cls-80" transform="translate(2880.26 2830.47) rotate(39)"><tspan x="0" y="0">Insecure</tspan></text>
  </g>
</svg>